<svg viewBox="0 0 40 40" class="sc-bcPKhP cvmRst mobile-icon" color="text" xmlns="http://www.w3.org/2000/svg"><g clip-path="url(#clip0_273_7663)"><path d="M9.34713 12.1643C8.71882 11.6105 8.06404 11.1222 7.20806 10.9523C6.56916 10.8249 6.02733 11.0514 5.47315 11.2867C5.45726 11.131 5.57375 11.0461 5.6567 10.947C6.13852 10.3543 6.74741 9.89248 7.31748 9.39706C8.1417 8.68046 9.01003 8.02226 9.99662 7.53569C10.5702 7.25259 11.1456 6.97657 11.7121 6.68108C12.0633 6.49707 12.3951 6.28828 12.1781 5.78579C12.1339 5.68493 12.1463 5.54338 12.1745 5.43014C12.261 5.08335 12.1728 4.77725 12.0227 4.46584C11.8921 4.19513 11.7086 3.90495 11.7086 3.62362C11.7086 3.10874 11.6874 2.6664 11.1209 2.46823C11.112 2.46469 11.1209 2.42223 11.1191 2.37976C11.3909 2.30545 11.6292 2.19044 11.5127 1.82949C12.4004 1.41015 13.3041 1.05274 14.2642 0.808566C14.9507 0.635168 15.6496 0.502466 16.3309 0.300759C16.9451 0.118514 17.591 0.0990513 18.2282 0.0530478C21.6168 -0.185816 24.8572 0.405151 27.9476 1.82064C28.3641 2.01173 28.3605 2.01881 28.0393 2.35853C26.4897 3.99342 24.9031 5.58762 23.027 6.85448C22.3175 7.33398 21.5709 7.74978 20.752 8.00634C19.7107 8.3319 18.6853 8.34251 17.7146 7.70024C18.1452 8.50353 18.3923 9.32628 18.2458 10.2287C17.8258 10.0057 17.4128 10.0093 16.991 10.2393C16.8798 10.2994 16.7333 10.2906 16.6045 10.3171C15.9161 10.4622 15.2066 10.5418 14.5483 10.7701C13.4894 11.1363 12.3775 11.2425 11.3097 11.5433C10.6496 11.7291 9.9472 11.7786 9.35243 12.1661L9.34713 12.1643Z" fill="#3B8BFF"/><path d="M11.5105 1.8258C11.627 2.18675 11.3887 2.30176 11.1169 2.37608C11.1169 2.41854 11.1116 2.46278 11.1187 2.46454C11.687 2.66448 11.7082 3.10682 11.7064 3.61994C11.7064 3.90127 11.89 4.19144 12.0206 4.46216C12.1706 4.77179 12.2606 5.07789 12.1723 5.42646C12.1441 5.5397 12.1317 5.68125 12.1759 5.7821C12.393 6.2846 12.0611 6.49339 11.7099 6.6774C11.1434 6.97288 10.568 7.25067 9.99444 7.532C9.00785 8.01858 8.13951 8.67678 7.3153 9.39337C6.74523 9.89056 6.13634 10.3506 5.65451 10.9433C5.57333 11.0442 5.45508 11.1291 5.47096 11.2831C4.78265 11.7095 4.3573 12.3871 3.88784 13.0082C2.48649 14.8625 1.37989 16.8813 0.703932 19.1196C0.592742 19.4894 0.508026 19.8698 0.412721 20.2431C0.391542 20.3263 0.352714 20.4041 0.253879 20.3776C0.163868 20.3528 0.216815 20.2714 0.215051 20.2095C0.123275 16.6761 0.869833 13.3373 2.55533 10.225C3.66016 8.1849 5.06856 6.38015 6.82995 4.86911C8.07068 3.80395 9.38731 2.84142 10.8628 2.11775C10.8998 2.14783 10.9457 2.20799 10.9722 2.20091C11.0569 2.17791 11.0216 2.10536 11.0075 2.04697C11.1752 1.97266 11.3411 1.89658 11.5087 1.82227L11.5105 1.8258Z" fill="#3B8BFF"/><path d="M9.34668 12.1645C9.94146 11.7753 10.6457 11.7257 11.304 11.5417C12.3735 11.2409 13.4854 11.1365 14.5426 10.7685C15.2009 10.5403 15.9122 10.4606 16.5987 10.3156C16.7275 10.289 16.8758 10.2979 16.9852 10.2377C17.407 10.0077 17.82 10.0042 18.2401 10.2271C18.0689 11.8054 17.2553 13.0811 16.3604 14.3302C15.3315 15.7634 14.089 17.002 12.8836 18.2759C12.7953 18.3697 12.723 18.4865 12.5694 18.536C12.0117 16.1456 11.0128 13.9835 9.34668 12.1628V12.1645ZM17.8783 10.2802C17.8889 10.2802 17.8977 10.2802 17.9083 10.2802C17.9083 10.2713 17.9118 10.2572 17.9083 10.2536C17.903 10.2483 17.8906 10.2519 17.88 10.2519C17.88 10.2607 17.88 10.2713 17.88 10.2802H17.8783Z" fill="#3B8BFF"/><path d="M11.009 2.05255C11.0231 2.11094 11.0584 2.18348 10.9737 2.20649C10.9472 2.21356 10.9013 2.1534 10.8643 2.12333C10.9119 2.09855 10.9613 2.07555 11.009 2.05078V2.05255Z" fill="#3B8BFF"/><path d="M17.8787 10.28C17.8787 10.2711 17.8787 10.2605 17.8787 10.2516C17.8875 10.2516 17.9017 10.2481 17.907 10.2534C17.9123 10.257 17.907 10.2711 17.907 10.28C17.8964 10.28 17.8875 10.28 17.877 10.28H17.8787Z" fill="#3B8BFF"/><path d="M39.9735 28.8794C36.0872 25.8414 32.0932 27.6798 28.1963 28.5698C23.9711 29.5358 19.8747 31.0593 15.5683 31.7122C12.6315 32.158 9.68232 32.3597 6.78786 31.4043C2.91387 30.1286 0.241793 26.4713 0 21.9966C1.46841 22.2655 2.28027 23.5129 3.43982 24.157C8.25097 26.8323 13.2916 26.3368 18.3639 25.4274C22.1303 24.7533 25.8772 23.957 29.6311 23.2157C31.5249 22.8406 33.4433 22.7521 35.3459 23.0016C38.5351 23.4209 40.2312 25.5459 39.9718 28.8776L39.9735 28.8794Z" fill="#3B8BFF"/><path d="M6.97164 33.6534C12.8576 36.5445 18.4577 36.088 23.9819 32.5228C26.721 30.7552 29.6102 29.1167 32.8753 28.4355C33.8813 28.225 34.9455 28.1577 35.9727 28.2126C37.2717 28.2834 38.7595 28.4302 39.1442 29.9589C39.5361 31.5107 39.3031 33.0429 37.3282 34.1205C37.6247 30.7888 35.6215 31.6487 33.9236 32.0415C30.655 32.7952 27.9565 34.8229 25.1944 36.5003C17.9282 40.9113 12.1993 40.3363 6.6416 34.0462C6.76691 33.9276 6.8781 33.7967 6.9734 33.6534H6.97164Z" fill="#3B8BFF"/><path d="M24.0137 39.4567C27.0405 38.0872 29.0472 35.3004 32.0317 33.9469C33.1948 33.4196 34.7973 32.02 35.6939 33.5806C36.5904 35.1412 34.8149 36.1303 33.5972 36.8893C31.001 38.5065 28.1259 39.3877 25.1362 39.9716C24.5502 40.0866 24.3808 39.8265 24.0154 39.4567H24.0137Z" fill="#3B8BFF"/><path d="M8.81543 33.016C13.556 33.4636 18.0865 32.1171 22.9312 31.1528C19.8779 34.872 13.3213 35.7089 8.81543 33.016Z" fill="#3B8BFF"/><path d="M6.63936 34.0443C6.54935 33.8939 6.4611 33.7417 6.37109 33.5913C6.57053 33.6125 6.76996 33.6338 6.97116 33.6532C6.87586 33.7948 6.76467 33.9257 6.63936 34.0443Z" fill="#3B8BFF"/><path d="M27.8288 22.853C28.9354 20.4308 28.7977 18.0952 27.4688 15.7632C27.9223 15.9419 28.3971 16.0817 28.8277 16.3081C30.4815 17.1751 31.5051 18.5375 31.8563 20.3777C31.9446 20.8448 31.9393 21.3296 31.9693 21.8073C31.9781 21.9542 31.9305 22.0391 31.7451 22.0745C30.6385 22.2833 29.5355 22.5151 28.4324 22.738C28.2418 22.7769 28.0494 22.8106 27.8306 22.853H27.8288Z" fill="white"/><path d="M24.3184 24.4561C24.2778 24.2933 24.2443 24.1553 24.209 24.0067C24.5249 23.9571 24.8179 23.8881 25.1144 23.8722C26.071 23.8191 26.9693 23.4989 27.8959 23.3007C29.1154 23.0388 30.335 22.7823 31.5599 22.5558C32.4758 22.3859 33.3989 22.2656 34.3643 22.1152C34.3131 22.1895 34.2884 22.2338 34.2549 22.2709C33.8595 22.7327 33.4589 23.191 33.0689 23.6563C32.9771 23.7661 32.8977 23.7837 32.7618 23.743C31.7787 23.444 30.7692 23.4139 29.7667 23.5573C28.7695 23.6988 27.7865 23.9288 26.7946 24.0969C25.9774 24.2349 25.155 24.3376 24.3202 24.4579L24.3184 24.4561Z" fill="white"/><path d="M26.2458 15.2446C26.6429 15.3207 27.0383 15.395 27.4354 15.4711C27.4318 15.4941 27.4283 15.5189 27.4248 15.5419C27.2712 15.5242 27.1177 15.5047 26.9183 15.4817C26.9783 15.5773 27.0189 15.6445 27.0612 15.7117C28.4414 17.8721 28.6496 20.1493 27.7372 22.5379C27.6472 22.7733 27.5236 22.9573 27.2554 23.0121C27.1336 23.0369 27.0189 23.1024 26.86 23.1678C27.9296 20.4236 27.7089 17.8155 26.2158 15.3172L26.2494 15.2464L26.2458 15.2446Z" fill="white"/><path d="M24.6943 24.617C24.7826 24.61 24.8726 24.594 24.9608 24.5958C26.0939 24.6188 27.1776 24.3428 28.2595 24.0526C29.4119 23.743 30.5839 23.6846 31.7681 23.7943C32.0046 23.8155 32.2393 23.8509 32.4758 23.9146C32.2058 23.9181 31.934 23.927 31.664 23.9217C30.5591 23.9022 29.4843 24.1039 28.4236 24.3799C27.3876 24.6506 26.341 24.7391 25.275 24.6825C25.1726 24.6772 25.0703 24.6825 24.9679 24.6754C24.8761 24.6701 24.7861 24.656 24.6943 24.6453C24.6943 24.6347 24.6943 24.6259 24.6943 24.6153V24.617Z" fill="white"/></g><defs><linearGradient id="paint0_linear_273_7663" x1="19.9989" y1="21.9966" x2="21.1142" y2="35.6422" gradientUnits="userSpaceOnUse"><stop stop-color="#3B8BFF"/><stop offset="1" stop-color="#3B8BFF" stop-opacity="0"/></linearGradient><linearGradient id="paint1_linear_273_7663" x1="22.9726" y1="28.1943" x2="24.6386" y2="43.2233" gradientUnits="userSpaceOnUse"><stop stop-color="#3B8BFF"/><stop offset="1" stop-color="#3B8BFF" stop-opacity="0"/></linearGradient><linearGradient id="paint2_linear_273_7663" x1="29.9757" y1="32.8647" x2="31.7911" y2="42.2276" gradientUnits="userSpaceOnUse"><stop stop-color="#3B8BFF"/><stop offset="1" stop-color="#3B8BFF" stop-opacity="0"/></linearGradient><linearGradient id="paint3_linear_273_7663" x1="15.8733" y1="31.1528" x2="16.2414" y2="35.8107" gradientUnits="userSpaceOnUse"><stop stop-color="#3B8BFF"/><stop offset="1" stop-color="#3B8BFF" stop-opacity="0"/></linearGradient><linearGradient id="paint4_linear_273_7663" x1="6.67113" y1="33.5913" x2="6.81349" y2="34.1733" gradientUnits="userSpaceOnUse"><stop stop-color="#3B8BFF"/><stop offset="1" stop-color="#3B8BFF" stop-opacity="0"/></linearGradient><clipPath id="clip0_273_7663"><rect width="40" height="40" fill="white"/></clipPath></defs></svg>